<svg width="140" height="41" viewBox="0 0 140 41" fill="none" xmlns="http://www.w3.org/2000/svg">
<rect y="0.641113" width="140" height="40" rx="20" fill="#282C38"/>
<path d="M50.5703 17.0161H47.3516V26.6411H45.4922V17.0161H42.2812V15.438H50.5703V17.0161ZM57.2188 23.1333H51.7656C51.7865 23.8729 52.013 24.4432 52.4453 24.8442C52.8828 25.2453 53.4818 25.4458 54.2422 25.4458C55.0964 25.4458 55.8802 25.1906 56.5938 24.6802V26.1411C55.8646 26.5994 54.901 26.8286 53.7031 26.8286C52.526 26.8286 51.6016 26.4666 50.9297 25.7427C50.263 25.0135 49.9297 23.9901 49.9297 22.6724C49.9297 21.4276 50.2969 20.4146 51.0312 19.6333C51.7708 18.8468 52.6875 18.4536 53.7812 18.4536C54.875 18.4536 55.7214 18.8052 56.3203 19.5083C56.9193 20.2114 57.2188 21.188 57.2188 22.438V23.1333ZM55.4688 21.8521C55.4635 21.201 55.3099 20.6958 55.0078 20.3364C54.7057 19.9718 54.2891 19.7896 53.7578 19.7896C53.237 19.7896 52.7943 19.9797 52.4297 20.3599C52.0703 20.7401 51.849 21.2375 51.7656 21.8521H55.4688ZM63.1641 26.5552C62.8099 26.7323 62.3438 26.8208 61.7656 26.8208C60.2135 26.8208 59.4375 26.076 59.4375 24.5864V20.063H58.1016V18.6411H59.4375V16.7896L61.25 16.2739V18.6411H63.1641V20.063H61.25V24.063C61.25 24.5369 61.3359 24.8755 61.5078 25.0786C61.6797 25.2817 61.9661 25.3833 62.3672 25.3833C62.6745 25.3833 62.9401 25.2948 63.1641 25.1177V26.5552ZM71.8359 26.6411H70.0234V22.2661C70.0234 20.6828 69.4948 19.8911 68.4375 19.8911C67.9062 19.8911 67.4583 20.1203 67.0938 20.5786C66.7292 21.0369 66.5469 21.6229 66.5469 22.3364V26.6411H64.7266V14.7974H66.5469V19.9692H66.5781C67.1823 18.9588 68.0469 18.4536 69.1719 18.4536C70.9479 18.4536 71.8359 19.5396 71.8359 21.7114V26.6411ZM80.8125 23.1333H75.3594C75.3802 23.8729 75.6068 24.4432 76.0391 24.8442C76.4766 25.2453 77.0755 25.4458 77.8359 25.4458C78.6901 25.4458 79.474 25.1906 80.1875 24.6802V26.1411C79.4583 26.5994 78.4948 26.8286 77.2969 26.8286C76.1198 26.8286 75.1953 26.4666 74.5234 25.7427C73.8568 25.0135 73.5234 23.9901 73.5234 22.6724C73.5234 21.4276 73.8906 20.4146 74.625 19.6333C75.3646 18.8468 76.2812 18.4536 77.375 18.4536C78.4688 18.4536 79.3151 18.8052 79.9141 19.5083C80.513 20.2114 80.8125 21.188 80.8125 22.438V23.1333ZM79.0625 21.8521C79.0573 21.201 78.9036 20.6958 78.6016 20.3364C78.2995 19.9718 77.8828 19.7896 77.3516 19.7896C76.8307 19.7896 76.388 19.9797 76.0234 20.3599C75.6641 20.7401 75.4427 21.2375 75.3594 21.8521H79.0625ZM87.1797 20.3677C86.9609 20.1958 86.6458 20.1099 86.2344 20.1099C85.6979 20.1099 85.25 20.3521 84.8906 20.8364C84.5312 21.3208 84.3516 21.9797 84.3516 22.813V26.6411H82.5391V18.6411H84.3516V20.2896H84.3828C84.5599 19.7271 84.8307 19.2896 85.1953 18.9771C85.5651 18.6593 85.9766 18.5005 86.4297 18.5005C86.7578 18.5005 87.0078 18.55 87.1797 18.6489V20.3677ZM101.688 22.1099C101.688 25.2557 100.198 26.8286 97.2188 26.8286C94.3646 26.8286 92.9375 25.3156 92.9375 22.2896V15.438H94.7969V21.9067C94.7969 24.1047 95.651 25.2036 97.3594 25.2036C99.0052 25.2036 99.8281 24.1437 99.8281 22.0239V15.438H101.688V22.1099ZM103.805 26.1958V24.2817C103.977 24.438 104.18 24.5786 104.414 24.7036C104.654 24.8286 104.906 24.9354 105.172 25.0239C105.438 25.1073 105.703 25.1724 105.969 25.2192C106.234 25.2661 106.479 25.2896 106.703 25.2896C107.484 25.2896 108.065 25.1593 108.445 24.8989C108.831 24.6385 109.023 24.2609 109.023 23.7661C109.023 23.5005 108.958 23.2713 108.828 23.0786C108.703 22.8807 108.526 22.701 108.297 22.5396C108.068 22.3781 107.797 22.2244 107.484 22.0786C107.177 21.9276 106.846 21.7713 106.492 21.6099C106.112 21.4067 105.758 21.201 105.43 20.9927C105.102 20.7843 104.815 20.5552 104.57 20.3052C104.331 20.05 104.141 19.7635 104 19.4458C103.865 19.1281 103.797 18.7557 103.797 18.3286C103.797 17.8026 103.914 17.3468 104.148 16.9614C104.388 16.5708 104.701 16.2505 105.086 16.0005C105.477 15.7453 105.919 15.5578 106.414 15.438C106.909 15.313 107.414 15.2505 107.93 15.2505C109.102 15.2505 109.956 15.3833 110.492 15.6489V17.4849C109.857 17.0265 109.039 16.7974 108.039 16.7974C107.763 16.7974 107.487 16.8234 107.211 16.8755C106.94 16.9276 106.695 17.0135 106.477 17.1333C106.263 17.2531 106.089 17.4067 105.953 17.5942C105.818 17.7817 105.75 18.0083 105.75 18.2739C105.75 18.5239 105.802 18.7401 105.906 18.9224C106.01 19.1047 106.161 19.2713 106.359 19.4224C106.562 19.5734 106.807 19.7218 107.094 19.8677C107.385 20.0083 107.721 20.1619 108.102 20.3286C108.492 20.5317 108.859 20.7453 109.203 20.9692C109.552 21.1932 109.857 21.4406 110.117 21.7114C110.383 21.9823 110.591 22.2843 110.742 22.6177C110.898 22.9458 110.977 23.3208 110.977 23.7427C110.977 24.3104 110.862 24.7896 110.633 25.1802C110.404 25.5708 110.094 25.8885 109.703 26.1333C109.318 26.3781 108.872 26.5552 108.367 26.6646C107.862 26.7739 107.328 26.8286 106.766 26.8286C106.578 26.8286 106.346 26.813 106.07 26.7817C105.799 26.7557 105.521 26.714 105.234 26.6567C104.948 26.6047 104.677 26.5396 104.422 26.4614C104.167 26.3833 103.961 26.2948 103.805 26.1958ZM113.039 26.6411V15.438H116.273C120.404 15.438 122.469 17.2583 122.469 20.8989C122.469 22.6281 121.896 24.0187 120.75 25.0708C119.604 26.1177 118.068 26.6411 116.141 26.6411H113.039ZM114.891 17.0161V25.0708H116.375C117.682 25.0708 118.698 24.7114 119.422 23.9927C120.151 23.2739 120.516 22.2583 120.516 20.9458C120.516 18.326 119.159 17.0161 116.445 17.0161H114.891ZM131.055 17.0161H127.836V26.6411H125.977V17.0161H122.766V15.438H131.055V17.0161Z" fill="white"/>
<path d="M20 8.64111C26.6271 8.64111 32 14.014 32 20.6411C32 27.2682 26.6269 32.6411 20 32.6411C13.3731 32.6411 8 27.2697 8 20.6411C8 14.0126 13.3722 8.64111 20 8.64111Z" fill="white"/>
<path d="M21.4803 19.0424V17.2573H25.5624V14.5374H14.4466V17.2573H18.5292V19.041C15.2112 19.1934 12.7164 19.8505 12.7164 20.6377C12.7164 21.4249 15.2124 22.082 18.5292 22.2354V27.9534H21.4812V22.2349C24.7932 22.082 27.283 21.4254 27.283 20.6389C27.283 19.8524 24.7932 19.1958 21.4812 19.0429M21.4812 21.7506V21.7491C21.398 21.7544 20.97 21.7801 20.0172 21.7801C19.2555 21.7801 18.7196 21.7585 18.5307 21.7486V21.751C15.5993 21.6212 13.4112 21.1107 13.4112 20.4999C13.4112 19.8891 15.5996 19.3794 18.5307 19.2493V21.2425C18.7227 21.2557 19.2718 21.2881 20.0297 21.2881C20.94 21.2881 21.3977 21.2502 21.4817 21.2425V19.2493C24.4073 19.3796 26.5904 19.8906 26.5904 20.4992C26.5904 21.1078 24.4064 21.619 21.4817 21.7494" fill="#1E222F"/>
</svg>
