<svg width="128" height="41" viewBox="0 0 128 41" fill="none" xmlns="http://www.w3.org/2000/svg">
<rect x="0.5" y="0.641113" width="127" height="40" rx="20" fill="#282C38"/>
<path d="M52.5391 26.6411H50.3672L48.5781 23.6411C48.4167 23.3651 48.2578 23.1307 48.1016 22.938C47.9505 22.7401 47.7943 22.5786 47.6328 22.4536C47.4766 22.3286 47.3047 22.2375 47.1172 22.1802C46.9297 22.1229 46.7188 22.0942 46.4844 22.0942H45.7344V26.6411H43.8828V15.438H47.5703C48.0964 15.438 48.5807 15.5005 49.0234 15.6255C49.4661 15.7505 49.8516 15.9406 50.1797 16.1958C50.5078 16.4458 50.763 16.7609 50.9453 17.1411C51.1328 17.5161 51.2266 17.9562 51.2266 18.4614C51.2266 18.8573 51.1667 19.2218 51.0469 19.5552C50.9323 19.8833 50.7656 20.1776 50.5469 20.438C50.3333 20.6932 50.0729 20.9119 49.7656 21.0942C49.4635 21.2765 49.1224 21.4172 48.7422 21.5161V21.5474C48.9453 21.6619 49.1224 21.7896 49.2734 21.9302C49.4245 22.0656 49.5677 22.2062 49.7031 22.3521C49.8385 22.4979 49.9714 22.6646 50.1016 22.8521C50.237 23.0343 50.3854 23.2479 50.5469 23.4927L52.5391 26.6411ZM45.7344 16.9458V20.5864H47.2812C47.5677 20.5864 47.8307 20.5422 48.0703 20.4536C48.3151 20.3651 48.526 20.2375 48.7031 20.0708C48.8802 19.9041 49.0182 19.701 49.1172 19.4614C49.2161 19.2218 49.2656 18.9536 49.2656 18.6567C49.2656 18.1203 49.0964 17.701 48.7578 17.3989C48.4193 17.0968 47.9323 16.9458 47.2969 16.9458H45.7344ZM60 23.1333H54.5469C54.5677 23.8729 54.7943 24.4432 55.2266 24.8442C55.6641 25.2453 56.263 25.4458 57.0234 25.4458C57.8776 25.4458 58.6615 25.1906 59.375 24.6802V26.1411C58.6458 26.5994 57.6823 26.8286 56.4844 26.8286C55.3073 26.8286 54.3828 26.4666 53.7109 25.7427C53.0443 25.0135 52.7109 23.9901 52.7109 22.6724C52.7109 21.4276 53.0781 20.4146 53.8125 19.6333C54.5521 18.8468 55.4688 18.4536 56.5625 18.4536C57.6562 18.4536 58.5026 18.8052 59.1016 19.5083C59.7005 20.2114 60 21.188 60 22.438V23.1333ZM58.25 21.8521C58.2448 21.201 58.0911 20.6958 57.7891 20.3364C57.487 19.9718 57.0703 19.7896 56.5391 19.7896C56.0182 19.7896 55.5755 19.9797 55.2109 20.3599C54.8516 20.7401 54.6302 21.2375 54.5469 21.8521H58.25ZM67.8672 26.6411H66.1094V25.3911H66.0781C65.526 26.3494 64.7161 26.8286 63.6484 26.8286C62.862 26.8286 62.2448 26.6151 61.7969 26.188C61.3542 25.7609 61.1328 25.1958 61.1328 24.4927C61.1328 22.9823 62.0026 22.1021 63.7422 21.8521L66.1172 21.5161C66.1172 20.3755 65.5755 19.8052 64.4922 19.8052C63.5391 19.8052 62.6797 20.1333 61.9141 20.7896V19.2036C62.7578 18.7036 63.7318 18.4536 64.8359 18.4536C66.8568 18.4536 67.8672 19.4484 67.8672 21.438V26.6411ZM66.1172 22.7114L64.4375 22.9458C63.9167 23.0135 63.5234 23.1411 63.2578 23.3286C62.9974 23.5109 62.8672 23.8338 62.8672 24.2974C62.8672 24.6359 62.987 24.9146 63.2266 25.1333C63.4714 25.3468 63.7969 25.4536 64.2031 25.4536C64.7552 25.4536 65.2109 25.2609 65.5703 24.8755C65.9349 24.4849 66.1172 23.9953 66.1172 23.4067V22.7114ZM71 16.9614C70.7031 16.9614 70.4479 16.8651 70.2344 16.6724C70.026 16.4797 69.9219 16.2349 69.9219 15.938C69.9219 15.6411 70.026 15.3937 70.2344 15.1958C70.4479 14.9979 70.7031 14.8989 71 14.8989C71.3073 14.8989 71.5677 14.9979 71.7812 15.1958C71.9948 15.3937 72.1016 15.6411 72.1016 15.938C72.1016 16.2192 71.9948 16.4614 71.7812 16.6646C71.5677 16.8625 71.3073 16.9614 71 16.9614ZM71.8984 26.6411H70.0859V18.6411H71.8984V26.6411ZM73.7734 26.3911V24.7114C74.4505 25.2271 75.1979 25.4849 76.0156 25.4849C77.1094 25.4849 77.6562 25.1619 77.6562 24.5161C77.6562 24.3338 77.6094 24.1802 77.5156 24.0552C77.4219 23.925 77.2943 23.8104 77.1328 23.7114C76.9766 23.6125 76.7891 23.5239 76.5703 23.4458C76.3568 23.3677 76.1172 23.2791 75.8516 23.1802C75.5234 23.05 75.2266 22.9119 74.9609 22.7661C74.7005 22.6203 74.4818 22.4562 74.3047 22.2739C74.1328 22.0864 74.0026 21.8755 73.9141 21.6411C73.8255 21.4067 73.7812 21.1333 73.7812 20.8208C73.7812 20.4354 73.8724 20.0968 74.0547 19.8052C74.237 19.5083 74.4818 19.2609 74.7891 19.063C75.0964 18.8599 75.4453 18.7088 75.8359 18.6099C76.2266 18.5057 76.6302 18.4536 77.0469 18.4536C77.7865 18.4536 78.4479 18.5656 79.0312 18.7896V20.3755C78.4688 19.9901 77.8229 19.7974 77.0938 19.7974C76.8646 19.7974 76.6562 19.8208 76.4688 19.8677C76.2865 19.9146 76.1302 19.9797 76 20.063C75.8698 20.1463 75.7682 20.2479 75.6953 20.3677C75.6224 20.4823 75.5859 20.6099 75.5859 20.7505C75.5859 20.9224 75.6224 21.0682 75.6953 21.188C75.7682 21.3078 75.875 21.4146 76.0156 21.5083C76.1615 21.5968 76.3333 21.6802 76.5312 21.7583C76.7344 21.8312 76.9661 21.9119 77.2266 22.0005C77.5703 22.1411 77.8776 22.2843 78.1484 22.4302C78.4245 22.576 78.6589 22.7427 78.8516 22.9302C79.0443 23.1125 79.1927 23.326 79.2969 23.5708C79.401 23.8104 79.4531 24.0968 79.4531 24.4302C79.4531 24.8364 79.3594 25.1906 79.1719 25.4927C78.9844 25.7948 78.7344 26.0448 78.4219 26.2427C78.1094 26.4406 77.7474 26.5864 77.3359 26.6802C76.9297 26.7791 76.5 26.8286 76.0469 26.8286C75.1719 26.8286 74.4141 26.6828 73.7734 26.3911ZM89.5625 29.188H88.0312C86.3854 27.3442 85.5625 25.0708 85.5625 22.3677C85.5625 19.6541 86.3854 17.3442 88.0312 15.438H89.5703C87.9557 17.4172 87.1484 19.7218 87.1484 22.3521C87.1484 24.9614 87.9531 27.2401 89.5625 29.188ZM92.9531 22.5786V26.6411H91.1016V15.438H94.5C95.7865 15.438 96.7839 15.7375 97.4922 16.3364C98.2005 16.9354 98.5547 17.7791 98.5547 18.8677C98.5547 19.9562 98.1849 20.8468 97.4453 21.5396C96.7057 22.2323 95.7057 22.5786 94.4453 22.5786H92.9531ZM92.9531 16.9692V21.063H94.1562C94.9531 21.063 95.5599 20.8781 95.9766 20.5083C96.3932 20.1385 96.6016 19.6177 96.6016 18.9458C96.6016 17.6281 95.8359 16.9692 94.3047 16.9692H92.9531ZM102.367 26.6411H100.453V15.438H102.367V26.6411ZM113.508 26.6411H111.281L108.984 22.5317C108.917 22.4067 108.841 22.2297 108.758 22.0005H108.727C108.68 22.1151 108.602 22.2922 108.492 22.5317L106.125 26.6411H103.883L107.555 21.0083L104.18 15.438H106.453L108.477 19.2192C108.607 19.4692 108.724 19.7192 108.828 19.9692H108.852C109.003 19.6411 109.133 19.3807 109.242 19.188L111.344 15.438H113.438L109.984 20.9927L113.508 26.6411ZM115.352 29.188H113.82C115.435 27.2401 116.242 24.9614 116.242 22.3521C116.242 19.7218 115.432 17.4172 113.812 15.438H115.359C117.01 17.3442 117.836 19.6541 117.836 22.3677C117.836 25.0708 117.008 27.3442 115.352 29.188Z" fill="white"/>
<path d="M20.5 9.14111C26.851 9.14111 32 14.2901 32 20.6411C32 26.9921 26.8507 32.1411 20.5 32.1411C14.1492 32.1411 9 26.9935 9 20.6411C9 14.2887 14.1483 9.14111 20.5 9.14111Z" fill="white" stroke="#F7C61A"/>
<path d="M25.0106 24.9112C24.6998 24.9123 24.3918 24.8518 24.1045 24.7332C23.8172 24.6147 23.5563 24.4403 23.3368 24.2203L20.919 21.801C20.8335 21.7192 20.7197 21.6736 20.6014 21.6736C20.4831 21.6736 20.3693 21.7192 20.2838 21.801L17.8578 24.2269C17.6385 24.4473 17.3776 24.622 17.0903 24.7409C16.803 24.8598 16.495 24.9207 16.184 24.9198H15.7107L18.7744 27.9836C19.2339 28.4421 19.8565 28.6996 20.5056 28.6996C21.1548 28.6996 21.7774 28.4421 22.2369 27.9836L25.3067 24.9132L25.0106 24.9112Z" fill="#1E222F"/>
<path d="M16.1845 16.361C16.4955 16.3601 16.8035 16.4209 17.0908 16.5399C17.3781 16.6588 17.639 16.8335 17.8584 17.0539L20.2843 19.4803C20.3686 19.5644 20.4828 19.6116 20.6019 19.6116C20.721 19.6116 20.8352 19.5644 20.9195 19.4803L23.3368 17.0631C23.556 16.8424 23.8168 16.6675 24.1041 16.5485C24.3915 16.4294 24.6996 16.3687 25.0106 16.3696H25.3016L22.2318 13.2998C22.0045 13.0724 21.7346 12.892 21.4375 12.7689C21.1405 12.6459 20.8221 12.5825 20.5005 12.5825C20.179 12.5825 19.8606 12.6459 19.5636 12.7689C19.2665 12.892 18.9966 13.0724 18.7693 13.2998L15.7107 16.361H16.1845Z" fill="#1E222F"/>
<path d="M27.8408 18.9091L25.9857 17.0541C25.9438 17.0712 25.8991 17.0802 25.8539 17.0806H25.0104C24.5714 17.0817 24.1507 17.256 23.8396 17.5657L21.4223 19.9814C21.2046 20.1987 20.9096 20.3208 20.602 20.3208C20.2944 20.3208 19.9994 20.1987 19.7817 19.9814L17.3552 17.5565C17.0442 17.2467 16.6234 17.0722 16.1844 17.0709H15.1488C15.1062 17.07 15.064 17.0615 15.0243 17.0459L13.1574 18.9091C12.6989 19.3686 12.4414 19.9913 12.4414 20.6404C12.4414 21.2895 12.6989 21.9121 13.1574 22.3716L15.0202 24.2344C15.0598 24.2185 15.102 24.21 15.1448 24.2094H16.1844C16.6234 24.2081 17.0442 24.0336 17.3552 23.7238L19.7812 21.2978C20.2198 20.8597 20.9842 20.8597 21.4223 21.2978L23.8396 23.7146C24.1507 24.0242 24.5714 24.1986 25.0104 24.1996H25.8539C25.8991 24.2 25.9439 24.209 25.9857 24.2262L27.8408 22.3711C28.0682 22.1438 28.2486 21.8739 28.3716 21.5769C28.4947 21.2798 28.558 20.9614 28.558 20.6399C28.558 20.3183 28.4947 20 28.3716 19.7029C28.2486 19.4058 28.0682 19.136 27.8408 18.9086" fill="#1E222F"/>
</svg>
