<svg width="31" height="31" viewBox="0 0 31 31" fill="none" xmlns="http://www.w3.org/2000/svg">
<rect x="0.128906" y="0.0522461" width="30.23" height="30.23" rx="6" fill="#3C4050"/>
<g clip-path="url(#clip0_65_2732)">
<path d="M16.8487 20.7924C18.5083 20.7924 19.8591 19.3622 19.8591 17.6049V9.91748H21.0987C22.1732 9.91748 23.0466 10.8421 23.0466 11.9799V22.1049C23.0466 23.2427 22.1732 24.1674 21.0987 24.1674H12.2446C11.17 24.1674 10.2966 23.2427 10.2966 22.1049V20.7924H16.8487Z" fill="white"/>
<path d="M7.46334 8.23003C7.46334 7.09074 8.33531 6.16748 9.41117 6.16748H16.8487C17.9247 6.16748 18.7966 7.09074 18.7966 8.23003V17.6049C18.7966 18.7442 17.9247 19.6675 16.8487 19.6675H9.41117C8.33531 19.6675 7.46334 18.7442 7.46334 17.6049V8.23003Z" fill="white"/>
</g>
<defs>
<clipPath id="clip0_65_2732">
<rect width="17" height="18" fill="white" transform="matrix(-1 0 0 1 23.7439 6.16748)"/>
</clipPath>
</defs>
</svg>
