<svg width="31" height="34" viewBox="0 0 31 34" fill="none" xmlns="http://www.w3.org/2000/svg">
<path fill-rule="evenodd" clip-rule="evenodd" d="M17.9121 1.42166C16.4454 0.526662 14.5987 0.526662 13.1321 1.42166C12.1587 2.01666 11.0171 2.715 10.3754 3.10666C10.1671 3.235 9.93705 3.325 9.69705 3.37333C8.66039 3.58 6.42705 4.02666 4.62372 4.38666C2.48039 4.81666 0.938721 6.69666 0.938721 8.88166V15.03C0.938721 23.6083 6.77705 31.085 15.0987 33.165H15.1004C15.3771 33.235 15.6671 33.235 15.9437 33.165H15.9454C24.2671 31.085 30.1054 23.6083 30.1054 15.03C30.1054 12.695 30.1054 10.5033 30.1054 8.88166C30.1054 6.69666 28.5637 4.81666 26.4204 4.38666C24.6171 4.02666 22.3837 3.58 21.3471 3.37333C21.1071 3.325 20.8771 3.235 20.6687 3.10666C20.0271 2.715 18.8854 2.01666 17.9121 1.42166ZM15.5221 30.6917C22.6337 28.8267 27.6054 22.3967 27.6054 15.03C27.6054 12.695 27.6054 10.5033 27.6054 8.88166C27.6054 7.88833 26.9037 7.03333 25.9304 6.83833C24.1271 6.47833 21.8937 6.03166 20.8571 5.82333C20.3287 5.71833 19.8254 5.52166 19.3654 5.24C18.7237 4.84833 17.5804 4.15 16.6087 3.555C15.9421 3.14833 15.1021 3.14833 14.4354 3.555C13.4637 4.15 12.3204 4.84833 11.6787 5.24C11.2187 5.52166 10.7154 5.71833 10.1871 5.82333C9.15039 6.03166 6.91705 6.47833 5.11372 6.83833C4.14039 7.03333 3.43872 7.88833 3.43872 8.88166V15.03C3.43872 22.3967 8.41039 28.8267 15.5221 30.6917Z" fill="white"/>
<path fill-rule="evenodd" clip-rule="evenodd" d="M13.8553 18.565L19.6386 12.7833C20.1253 12.295 20.9186 12.295 21.4053 12.7833C21.8936 13.27 21.8936 14.0633 21.4053 14.55L14.7386 21.2167C14.2503 21.705 13.4603 21.705 12.972 21.2167L10.472 18.7167C9.98363 18.23 9.98363 17.4367 10.472 16.95C10.9586 16.4617 11.752 16.4617 12.2386 16.95L13.8553 18.565Z" fill="white"/>
</svg>
