<svg width="203" height="43" viewBox="0 0 203 43" fill="none" xmlns="http://www.w3.org/2000/svg">
<path d="M0.627441 29.6906C0.627441 37.2886 4.74544 41.8126 12.1114 41.8126C16.3454 41.8126 19.2454 40.3626 20.6954 37.5206C21.1014 38.7386 21.9714 39.7826 23.3054 40.6526C24.5234 41.3486 26.1474 41.6966 28.0614 41.6966C29.7434 41.6966 31.0194 41.5226 31.9474 41.2326V34.0406C31.4254 34.0986 30.9034 34.1566 30.4974 34.1566C28.9314 34.1566 28.3514 33.2286 28.3514 30.9086V11.9426H19.7094V28.3566C19.7094 31.7786 17.5054 34.1566 14.3154 34.1566C11.0674 34.1566 9.26944 32.0686 9.26944 28.6466V11.9426H0.627441V29.6906Z" fill="white"/>
<path d="M42.0734 41.1746V24.7606C42.0734 21.3386 44.4514 18.9606 47.6994 18.9606C51.1214 18.9606 52.9194 21.0486 52.9194 24.4706V33.1706C52.9194 38.7386 55.4714 41.5226 60.6334 41.5226C62.4314 41.5226 63.7074 41.4066 64.4034 41.1166V33.8086L64.0554 33.8666H63.4754C62.0254 33.8666 61.5614 33.0546 61.5614 30.7926V23.4266C61.5614 15.8286 57.5014 11.3046 50.4834 11.3046C46.5394 11.3046 43.2914 13.0446 42.0734 15.5966V11.9426H33.4314V41.1746H42.0734Z" fill="white"/>
<path d="M80.6828 11.0726C76.1588 11.0726 72.3308 12.5806 69.1408 15.5966C66.0089 18.5546 64.4428 22.2086 64.4428 26.5586C64.4428 30.9086 66.0089 34.5626 69.1408 37.5786C72.3308 40.5366 76.1588 42.0446 80.6828 42.0446C85.1488 42.0446 88.9768 40.5366 92.1668 37.5786C95.3568 34.5626 96.9228 30.9086 96.9228 26.5586C96.9228 22.2086 95.3568 18.5546 92.1668 15.5966C88.9768 12.5806 85.1488 11.0726 80.6828 11.0726ZM73.0848 26.5586C73.0848 24.4126 73.8389 22.6146 75.2888 21.1646C76.7388 19.6566 78.5368 18.9026 80.6828 18.9026C82.8288 18.9026 84.6269 19.6566 86.0769 21.1646C87.5268 22.6146 88.2808 24.4126 88.2808 26.5586C88.2808 28.7046 87.5268 30.5026 86.0769 32.0106C84.6269 33.4606 82.8288 34.2146 80.6828 34.2146C78.5368 34.2146 76.7388 33.4606 75.2888 32.0106C73.8389 30.5606 73.0848 28.7046 73.0848 26.5586Z" fill="white"/>
<path d="M97.7749 34.8527C98.9349 39.3187 103.227 41.8707 108.795 41.8707C115.755 41.8707 119.525 38.0427 119.525 33.4027C119.525 28.9367 116.683 26.3847 110.651 24.0647C106.243 22.3827 104.271 21.1647 104.271 18.7867C104.271 16.4087 106.127 15.0167 108.853 15.0167C111.115 15.0167 112.739 16.0027 113.783 17.9167L117.263 16.1187C115.581 12.7547 112.739 11.0727 108.795 11.0727C103.633 11.0727 99.9789 14.3207 99.9789 18.7867C99.9789 23.0207 102.589 25.2247 107.925 27.3127C110.651 28.4147 112.565 29.3427 113.609 30.0967C114.711 30.8507 115.233 31.9527 115.233 33.4027C115.233 35.6647 113.609 37.8687 108.795 37.8687C104.793 37.8687 102.183 35.9547 101.429 33.4607L97.7749 34.8527Z" fill="#F7C61A"/>
<path d="M123.589 32.9967C123.589 39.0287 126.199 42.0447 131.419 42.0447C132.927 42.0447 134.029 41.8707 134.667 41.5807V37.8687C133.913 37.9847 133.043 38.0427 131.941 38.0427C129.099 38.0427 127.881 36.7087 127.881 32.9967V15.9447H134.667V11.9427H127.881V0.748657H123.589V11.9427H120.167V15.9447H123.589V32.9967Z" fill="#F7C61A"/>
<path d="M150.202 11.0727C146.084 11.0727 142.546 12.5807 139.704 15.5387C136.862 18.4967 135.412 22.1507 135.412 26.5587C135.412 30.9667 136.862 34.6787 139.704 37.6367C142.546 40.5947 146.084 42.0447 150.202 42.0447C155.074 42.0447 158.612 40.3047 160.816 36.8827C160.99 38.7967 161.686 40.1887 162.788 41.0587C163.542 41.5807 164.586 41.8707 165.862 41.8707C166.964 41.8707 167.892 41.6967 168.588 41.4067V38.1587C168.066 38.2167 167.544 38.2747 167.08 38.2747C165.456 38.2747 164.876 37.1727 164.876 34.6207V11.9427H160.584V16.2927C158.902 13.3347 155.48 11.0727 150.202 11.0727ZM150.202 38.0427C147.186 38.0427 144.692 36.9407 142.662 34.7947C140.69 32.5907 139.704 29.8647 139.704 26.5587C139.704 23.2527 140.69 20.5267 142.662 18.3807C144.692 16.1767 147.186 15.0747 150.202 15.0747C153.334 15.0747 155.944 16.1767 157.974 18.3807C160.062 20.5267 161.106 23.2527 161.106 26.5587C161.106 29.8647 160.062 32.5907 157.974 34.7947C155.944 36.9407 153.334 38.0427 150.202 38.0427Z" fill="#F7C61A"/>
<path d="M175.136 41.1747V24.1807C175.136 19.3087 178.442 15.9447 183.024 15.9447C184.184 15.9447 185.17 16.0607 185.924 16.2347V11.5947C185.402 11.5367 184.764 11.4787 184.126 11.4787C179.892 11.4787 176.702 13.6247 175.136 16.8727V11.9427H170.844V41.1747H175.136Z" fill="#F7C61A"/>
<path d="M191.338 32.9967C191.338 39.0287 193.948 42.0447 199.168 42.0447C200.676 42.0447 201.778 41.8707 202.416 41.5807V37.8687C201.662 37.9847 200.792 38.0427 199.69 38.0427C196.848 38.0427 195.63 36.7087 195.63 32.9967V15.9447H202.416V11.9427H195.63V0.748657H191.338V11.9427H187.916V15.9447H191.338V32.9967Z" fill="#F7C61A"/>
</svg>
