<svg width="41" height="41" viewBox="0 0 41 41" fill="none" xmlns="http://www.w3.org/2000/svg">
<path d="M26.4365 0.918259V14.9182H40.4365V0.918259H26.4365ZM36.4365 10.9183H30.4366V4.91829H36.4365V10.9183Z" fill="white"/>
<path d="M8.43673 18.9182H0.436768V22.9183H8.43673V18.9182Z" fill="white"/>
<path d="M18.4368 18.9182H12.4368V22.9183H18.4368V18.9182Z" fill="white"/>
<path d="M22.4368 14.9181H18.4368V18.9182H22.4368V14.9181Z" fill="white"/>
<path d="M14.4367 8.91822V0.918259H0.436768V14.9182H14.4367H18.4368V8.91822H14.4367ZM10.4368 10.9183H4.4368V4.91829H10.4368V10.9183Z" fill="white"/>
<path d="M22.4368 0.918259H18.4368V8.91822H22.4368V0.918259Z" fill="white"/>
<path d="M28.4368 22.9183H32.4367V28.9183H36.4367V18.9182H22.4368V22.9183H24.4367V26.9182H28.4368V22.9183Z" fill="white"/>
<path d="M24.4366 26.9181H20.4365V32.9181H24.4366V26.9181Z" fill="white"/>
<path d="M40.4368 28.9184H36.4368V32.9184H40.4368V28.9184Z" fill="white"/>
<path d="M28.4366 32.9181H24.4366V36.9181H20.4365V40.9182H28.4366V36.9181H32.4365V40.9182H38.4365V36.9181H36.4365V32.9181H32.4365H28.4366Z" fill="white"/>
<path d="M14.4367 32.9181V26.9181H0.436768V40.9181H14.4367V36.9181H20.4367V32.9181H14.4367ZM10.4368 36.9181H4.4368V30.9181H10.4368V36.9181Z" fill="white"/>
</svg>
