<svg width="25" height="25" viewBox="0 0 25 25" fill="none" xmlns="http://www.w3.org/2000/svg">
<g clip-path="url(#clip0_56_920)">
<path d="M7.09091 7.35742C6.58133 8.81139 6.29221 10.3443 6.22705 11.9478H11.5927V7.35742H7.09091Z" fill="#EAECEF"/>
<path d="M9.42278 3.04793C8.72312 3.97001 8.13751 4.93817 7.66553 5.94856H11.5928V0.708496C10.9895 1.23954 10.2032 2.01931 9.42278 3.04793Z" fill="#EAECEF"/>
<path d="M1.48786 7.35742C0.789279 8.779 0.378561 10.3333 0.285889 11.9478H4.81809C4.87884 10.3642 5.14509 8.8263 5.61234 7.35742H1.48786Z" fill="#EAECEF"/>
<path d="M6.22827 13.3564C6.30097 15.0827 6.63566 16.6146 7.10376 17.9469H11.5927V13.3564H6.22827Z" fill="#EAECEF"/>
<path d="M7.67651 19.3557C8.22814 20.5427 8.86489 21.5267 9.4565 22.301C10.2294 23.3123 11 24.0762 11.5926 24.5978V19.3558H7.67651V19.3557Z" fill="#EAECEF"/>
<path d="M17.468 7.35742H13.0015V11.9478H18.3435C18.2708 10.2216 17.936 8.68966 17.468 7.35742Z" fill="#EAECEF"/>
<path d="M4.81809 13.3564H0.285889C0.378561 14.971 0.789279 16.5253 1.48786 17.9469H5.61234C5.14509 16.478 4.87884 14.9401 4.81809 13.3564Z" fill="#EAECEF"/>
<path d="M15.1152 3.00346C14.352 2.00483 13.5911 1.24738 13.0015 0.726318V5.94871H16.8951C16.3436 4.76169 15.7068 3.77765 15.1152 3.00346Z" fill="#EAECEF"/>
<path d="M3.78571 4.1518C3.22912 4.70839 2.7343 5.31013 2.30371 5.94843H6.13016V5.94847C6.69459 4.60443 7.43535 3.32825 8.33732 2.14789C8.65766 1.72869 8.97777 1.34858 9.28757 1.00635C7.22385 1.53393 5.33132 2.60624 3.78571 4.1518Z" fill="#EAECEF"/>
<path d="M8.33732 23.156C7.4353 21.9757 6.69459 20.6995 6.13016 19.3555H2.30371C2.7343 19.9938 3.22912 20.5955 3.78571 21.1521C5.33137 22.6977 7.2239 23.77 9.28757 24.2975C8.97777 23.9554 8.65766 23.5753 8.33732 23.156Z" fill="#EAECEF"/>
<path d="M18.4416 19.3557C17.8772 20.6997 17.1364 21.9759 16.2344 23.1562C15.9141 23.5755 15.594 23.9556 15.2842 24.2977C17.3479 23.7702 19.2404 22.6979 20.786 21.1523C21.3426 20.5957 21.8374 19.994 22.268 19.3557H18.4416Z" fill="#EAECEF"/>
<path d="M13.0015 19.3557V24.576C13.6018 24.0454 14.3782 23.2722 15.149 22.2563C15.8487 21.3342 16.4343 20.3661 16.9063 19.3557H13.0015Z" fill="#EAECEF"/>
<path d="M20.786 4.152C19.2404 2.60639 17.3479 1.53408 15.2842 1.00659C15.594 1.34878 15.9141 1.72884 16.2344 2.14809C17.1364 3.32845 17.8772 4.60462 18.4416 5.94867H22.268C21.8374 5.31033 21.3426 4.70854 20.786 4.152Z" fill="#EAECEF"/>
<path d="M23.0839 7.35742H18.9595C19.4267 8.8263 19.693 10.3643 19.7537 11.9478H24.2859C24.1932 10.3333 23.7825 8.779 23.0839 7.35742Z" fill="#EAECEF"/>
<path d="M13.0015 13.3564V17.9469H17.4809C17.9905 16.4929 18.2796 14.96 18.3447 13.3564H13.0015Z" fill="#EAECEF"/>
<path d="M19.7537 13.3564C19.693 14.9401 19.4267 16.478 18.9595 17.9469H23.084C23.7825 16.5253 24.1932 14.971 24.2859 13.3564H19.7537Z" fill="#EAECEF"/>
</g>
<defs>
<clipPath id="clip0_56_920">
<rect width="24" height="24" fill="white" transform="translate(0.285889 0.653076)"/>
</clipPath>
</defs>
</svg>
