<svg width="17" height="17" viewBox="0 0 17 17" fill="none" xmlns="http://www.w3.org/2000/svg">
<path d="M8.17065 16.7822C3.75932 16.7822 0.170654 13.1936 0.170654 8.78223C0.170654 4.37089 3.75932 0.782227 8.17065 0.782227C12.582 0.782227 16.1707 4.37089 16.1707 8.78223C16.1707 13.1936 12.582 16.7822 8.17065 16.7822ZM8.17065 2.11556C4.49465 2.11556 1.50399 5.10623 1.50399 8.78223C1.50399 12.4582 4.49465 15.4489 8.17065 15.4489C11.8467 15.4489 14.8373 12.4582 14.8373 8.78223C14.8373 5.10623 11.8467 2.11556 8.17065 2.11556ZM11.504 8.78223C11.504 8.41356 11.206 8.11556 10.8373 8.11556H8.83732V4.78223C8.83732 4.41356 8.53865 4.11556 8.17065 4.11556C7.80265 4.11556 7.50399 4.41356 7.50399 4.78223V8.78223C7.50399 9.15089 7.80265 9.44889 8.17065 9.44889H10.8373C11.206 9.44889 11.504 9.15089 11.504 8.78223Z" fill="white"/>
</svg>
