<svg width="20" height="16" viewBox="0 0 20 16" fill="none" xmlns="http://www.w3.org/2000/svg">
<path d="M18.0537 0.64056L17.7434 0.75681L0.905948 7.0255C0.786628 7.06363 0.682923 7.14159 0.611088 7.24716C0.539253 7.35274 0.503348 7.47996 0.509001 7.60888C0.514655 7.73781 0.561547 7.86115 0.642328 7.95958C0.723108 8.05801 0.833212 8.12596 0.95538 8.15278L5.3139 9.38573L6.12697 11.8516L6.94004 14.3175C6.98675 14.4384 7.0613 14.5457 7.15724 14.6301C7.25317 14.7144 7.36758 14.7733 7.49053 14.8016C7.61348 14.8299 7.74126 14.8267 7.86276 14.7924C7.98427 14.7581 8.09583 14.6936 8.18777 14.6046L10.4395 12.4065L14.8611 15.5047C15.4014 15.8852 16.1719 15.6033 16.3099 14.9763L19.2383 1.60579C19.3815 0.943514 18.7065 0.399253 18.0537 0.64056ZM15.9042 3.60846L8.29686 10.0339L7.9389 10.3369C7.86027 10.4013 7.80893 10.4948 7.79572 10.5975L7.71561 11.281L7.49572 13.2008C7.49753 13.2242 7.49028 13.2473 7.47558 13.2652C7.46087 13.283 7.43992 13.2941 7.41731 13.296C7.39471 13.2978 7.37231 13.2903 7.35505 13.2751C7.33779 13.2599 7.32707 13.2383 7.32527 13.2149L6.70652 11.2968L6.06731 9.33289C6.04028 9.24461 6.04387 9.14936 6.07747 9.06352C6.11107 8.97768 6.17257 8.90664 6.2514 8.86261L14.1673 4.17385L15.6571 3.29317C15.8736 3.16283 16.0952 3.44641 15.9042 3.60846Z" fill="white"/>
</svg>
