<svg width="41" height="41" viewBox="0 0 41 41" fill="none" xmlns="http://www.w3.org/2000/svg">
<path d="M20.4148 0.918945C31.46 0.918945 40.4148 9.87374 40.4148 20.9189C40.4148 31.9641 31.4596 40.9189 20.4148 40.9189C9.37 40.9189 0.414795 31.9665 0.414795 20.9189C0.414795 9.87134 9.36839 0.918945 20.4148 0.918945Z" fill="white"/>
<path d="M22.8825 18.254V15.2788H29.6861V10.7456H11.1597V15.2788H17.9641V18.2516C12.4341 18.5056 8.27612 19.6008 8.27612 20.9128C8.27612 22.2248 12.4361 23.32 17.9641 23.5756V33.1056H22.8841V23.5748C28.4041 23.32 32.5537 22.2256 32.5537 20.9148C32.5537 19.604 28.4041 18.5096 22.8841 18.2548M22.8841 22.7676V22.7652C22.7453 22.774 22.0321 22.8168 20.4441 22.8168C19.1745 22.8168 18.2813 22.7808 17.9665 22.7644V22.7684C13.0809 22.552 9.43412 21.7012 9.43412 20.6832C9.43412 19.6652 13.0813 18.8156 17.9665 18.5988V21.9208C18.2865 21.9428 19.2017 21.9968 20.4649 21.9968C21.9821 21.9968 22.7449 21.9336 22.8849 21.9208V18.5988C27.7609 18.816 31.3993 19.6676 31.3993 20.682C31.3993 21.6964 27.7593 22.5484 22.8849 22.7656" fill="#2E2A4D"/>
</svg>
