<svg width="35" height="31" viewBox="0 0 35 31" fill="none" xmlns="http://www.w3.org/2000/svg">
<path d="M22.6382 18.9704C22.2848 18.9653 21.9477 18.8213 21.6996 18.5696C21.4515 18.3179 21.3125 17.9787 21.3125 17.6253C21.3125 17.2719 21.4515 16.9327 21.6995 16.681C21.9476 16.4293 22.2847 16.2852 22.6381 16.2801C22.9914 16.2852 23.3286 16.4292 23.5766 16.6809C23.8247 16.9326 23.9638 17.2718 23.9638 17.6252C23.9638 17.9786 23.8247 18.3178 23.5767 18.5695C23.3287 18.8213 22.9915 18.9653 22.6382 18.9704ZM30.5072 12.7234C28.5735 -3.87518 6.61391 -3.80553 4.76607 12.7936C-1.69839 12.9847 -1.37818 22.8753 5.0325 22.6807C5.47156 24.7696 6.6064 26.6476 8.25144 28.0078C9.89647 29.368 11.9543 30.1297 14.0885 30.1684H16.5678C16.8952 30.1622 17.2071 30.0278 17.4364 29.794C17.6658 29.5603 17.7942 29.2459 17.7942 28.9184C17.7942 28.5909 17.6657 28.2765 17.4364 28.0428C17.207 27.8091 16.8951 27.6746 16.5677 27.6684H14.0885C10.1387 27.6841 7.23426 24.1855 7.20695 20.1103C7.20252 18.6621 7.20985 15.4946 7.2068 14.0423C7.74153 -0.932664 27.5343 -0.935689 28.0698 14.0424V21.3196C28.0698 21.6511 28.2015 21.969 28.436 22.2034C28.6704 22.4379 28.9883 22.5696 29.3198 22.5696H30.084C31.3487 22.5589 32.5611 22.0631 33.4707 21.1843C34.3803 20.3056 34.9178 19.1111 34.9721 17.8475C35.0264 16.5839 34.5934 15.3477 33.7626 14.3942C32.9317 13.4406 31.7663 12.8425 30.5072 12.7234ZM17.6381 16.2801C17.2847 16.2852 16.9476 16.4293 16.6995 16.681C16.4515 16.9327 16.3125 17.2719 16.3125 17.6253C16.3125 17.9787 16.4515 18.3179 16.6996 18.5696C16.9477 18.8213 17.2848 18.9653 17.6382 18.9704C17.9915 18.9653 18.3287 18.8213 18.5767 18.5695C18.8247 18.3178 18.9638 17.9786 18.9638 17.6252C18.9638 17.2718 18.8247 16.9326 18.5766 16.6809C18.3286 16.4292 17.9914 16.2852 17.6381 16.2801ZM11.293 17.6252C11.298 17.9786 11.442 18.3159 11.6937 18.564C11.9455 18.8122 12.2847 18.9513 12.6382 18.9513C12.9917 18.9512 13.3309 18.8121 13.5826 18.564C13.8344 18.3158 13.9783 17.9786 13.9833 17.6251C13.9783 17.2717 13.8343 16.9345 13.5826 16.6863C13.3309 16.4382 12.9916 16.2991 12.6381 16.2991C12.2847 16.2991 11.9454 16.4382 11.6937 16.6864C11.442 16.9345 11.298 17.2718 11.293 17.6252Z" fill="white"/>
</svg>
