<svg width="26" height="26" viewBox="0 0 26 26" fill="none" xmlns="http://www.w3.org/2000/svg">
<path d="M24.9167 11.9167H21.5995C21.4999 11.1227 21.2903 10.3464 20.9766 9.61025L23.8528 7.93542C24.0839 7.78285 24.2478 7.54759 24.3108 7.27796C24.3739 7.00833 24.3313 6.72479 24.1918 6.48559C24.0523 6.2464 23.8265 6.0697 23.5608 5.99179C23.295 5.91388 23.0096 5.94067 22.763 6.06667L19.8835 7.74042C19.4131 7.12937 18.8642 6.58299 18.2509 6.11542L19.9203 3.24675C20.0649 2.99836 20.1048 2.70274 20.0313 2.42491C19.9579 2.14709 19.7771 1.90981 19.5287 1.76529C19.2803 1.62077 18.9847 1.58084 18.7069 1.65428C18.429 1.72773 18.1918 1.90853 18.0473 2.15692L16.38 5.01908C15.6466 4.70794 14.8738 4.49977 14.0833 4.4005V1.08333C14.0833 0.796016 13.9692 0.520465 13.766 0.317301C13.5629 0.114137 13.2873 0 13 0C12.7127 0 12.4371 0.114137 12.234 0.317301C12.0308 0.520465 11.9167 0.796016 11.9167 1.08333V4.4005C11.1309 4.49913 10.3625 4.70545 9.633 5.01367L7.96792 2.1515C7.89811 2.02521 7.80378 1.91415 7.69046 1.82482C7.57715 1.73549 7.44712 1.6697 7.30803 1.6313C7.16894 1.59291 7.02358 1.58269 6.88048 1.60125C6.73739 1.6198 6.59944 1.66676 6.47474 1.73936C6.35004 1.81195 6.2411 1.90873 6.15431 2.02401C6.06752 2.13929 6.00464 2.27074 5.96935 2.41065C5.93406 2.55056 5.92708 2.69612 5.94882 2.83876C5.97055 2.98141 6.02056 3.11828 6.09592 3.24133L7.75992 6.10242C7.1439 6.57111 6.59305 7.11977 6.12192 7.73392L3.25 6.06667C3.00414 5.94874 2.72285 5.92787 2.46228 6.00822C2.20171 6.08857 1.98102 6.26423 1.84426 6.50013C1.7075 6.73604 1.66474 7.01484 1.7245 7.28089C1.78426 7.54694 1.94216 7.78066 2.16667 7.93542L5.02667 9.60375C4.71126 10.3418 4.5005 11.1203 4.4005 11.9167H1.08333C0.796016 11.9167 0.520465 12.0308 0.317301 12.234C0.114137 12.4371 0 12.7127 0 13C0 13.2873 0.114137 13.5629 0.317301 13.766C0.520465 13.9692 0.796016 14.0833 1.08333 14.0833H4.4005C4.50042 14.8774 4.71044 15.6536 5.0245 16.3897L2.16667 18.0505C2.04368 18.1223 1.93604 18.2177 1.84991 18.3312C1.76378 18.4446 1.70083 18.5739 1.66467 18.7117C1.6285 18.8494 1.61983 18.993 1.63914 19.1341C1.65845 19.2752 1.70536 19.4111 1.77721 19.5341C1.84905 19.6571 1.94442 19.7647 2.05786 19.8509C2.1713 19.937 2.30059 20 2.43836 20.0361C2.7166 20.1092 3.01245 20.0687 3.26083 19.9236L6.11758 18.2607C6.58551 18.8714 7.13188 19.4177 7.74258 19.8857L6.06667 22.75C5.922 22.9985 5.88199 23.2943 5.95544 23.5724C6.02888 23.8504 6.20976 24.0879 6.45829 24.2325C6.70682 24.3772 7.00264 24.4172 7.28067 24.3438C7.5587 24.2703 7.79617 24.0894 7.94083 23.8409L9.607 20.9744C10.344 21.2893 11.1214 21.4997 11.9167 21.5995V24.9167C11.9167 25.204 12.0308 25.4795 12.234 25.6827C12.4371 25.8859 12.7127 26 13 26C13.2873 26 13.5629 25.8859 13.766 25.6827C13.9692 25.4795 14.0833 25.204 14.0833 24.9167V21.5995C14.8829 21.4992 15.6644 21.287 16.4049 20.969L18.0765 23.8409C18.2212 24.0892 18.4585 24.2698 18.7363 24.343C19.0142 24.4162 19.3097 24.3761 19.558 24.2315C19.8062 24.0868 19.9868 23.8494 20.06 23.5716C20.1333 23.2938 20.0932 22.9982 19.9485 22.75L18.2737 19.8716C18.8802 19.405 19.4229 18.8609 19.8878 18.2531L22.7554 19.9225C23.0038 20.067 23.2994 20.107 23.5773 20.0335C23.8551 19.9601 24.0924 19.7793 24.2369 19.5309C24.3814 19.2825 24.4213 18.9869 24.3479 18.709C24.2744 18.4312 24.0936 18.1939 23.8453 18.0494L20.9788 16.3811C21.2911 15.6476 21.5 14.8743 21.5995 14.0833H24.9167C25.204 14.0833 25.4795 13.9692 25.6827 13.766C25.8859 13.5629 26 13.2873 26 13C26 12.7127 25.8859 12.4371 25.6827 12.234C25.4795 12.0308 25.204 11.9167 24.9167 11.9167ZM13 19.5C4.719 19.3982 4.108 6.84667 13 6.5C21.5898 6.773 21.5887 19.2281 13 19.5ZM14.5763 17.0853C8.54642 18.9583 6.11 10.075 12.3078 8.72192C12.9146 8.62864 13.5337 8.65366 14.131 8.79558C14.2325 8.82163 14.3253 8.87428 14.3997 8.94812C14.4741 9.02195 14.5275 9.1143 14.5543 9.21563C14.5811 9.31696 14.5804 9.42362 14.5523 9.52459C14.5242 9.62557 14.4696 9.71722 14.3942 9.79008C13.9416 10.1908 13.5855 10.6888 13.3525 11.2467C13.1196 11.8046 13.0159 12.4079 13.0491 13.0115C13.0823 13.6152 13.2517 14.2035 13.5445 14.7324C13.8373 15.2613 14.2459 15.7172 14.7398 16.0658C14.8227 16.1309 14.8866 16.2169 14.925 16.315C14.9633 16.4131 14.9748 16.5197 14.9581 16.6237C14.9414 16.7277 14.8972 16.8253 14.8301 16.9065C14.7629 16.9877 14.6753 17.0494 14.5763 17.0853Z" fill="#EAECEF"/>
</svg>
