<svg width="41" height="41" viewBox="0 0 41 41" fill="none" xmlns="http://www.w3.org/2000/svg">
<path d="M31.61 31.0166C30.8386 31.0194 30.0743 30.8693 29.3613 30.575C28.6482 30.2807 28.0006 29.848 27.4558 29.3019L21.4551 23.2974C21.2428 23.0945 20.9605 22.9812 20.6668 22.9812C20.3731 22.9812 20.0908 23.0945 19.8785 23.2974L13.8576 29.3184C13.3131 29.8653 12.6656 30.2988 11.9526 30.594C11.2395 30.8892 10.4751 31.0401 9.70336 31.0381H8.52856L16.1324 38.642C17.2728 39.78 18.8181 40.4191 20.4292 40.4191C22.0403 40.4191 23.5856 39.78 24.726 38.642L32.345 31.0217L31.61 31.0166Z" fill="white"/>
<path d="M9.70462 9.79566C10.4763 9.7936 11.2408 9.94452 11.9539 10.2397C12.6669 10.5349 13.3144 10.9685 13.8588 11.5154L19.8798 17.5376C20.0891 17.7463 20.3726 17.8634 20.6681 17.8634C20.9636 17.8634 21.2471 17.7463 21.4563 17.5376L27.4558 11.5382C27.9998 10.9906 28.6471 10.5565 29.3603 10.261C30.0734 9.96561 30.8381 9.81475 31.61 9.8172H32.3324L24.7133 2.19817C24.1491 1.63377 23.4793 1.18605 22.742 0.88059C22.0048 0.575129 21.2145 0.417908 20.4165 0.417908C19.6185 0.417908 18.8283 0.575129 18.091 0.88059C17.3538 1.18605 16.6839 1.63377 16.1197 2.19817L8.52856 9.79566H9.70462Z" fill="white"/>
<path d="M38.6348 16.1197L34.0307 11.5156C33.9268 11.558 33.8159 11.5804 33.7037 11.5815H31.6101C30.5207 11.5842 29.4763 12.0169 28.7042 12.7854L22.7048 18.781C22.1645 19.3204 21.4322 19.6233 20.6688 19.6233C19.9054 19.6233 19.1732 19.3204 18.6329 18.781L12.6107 12.7626C11.8387 11.9936 10.7944 11.5605 9.70474 11.5574H7.13464C7.02872 11.555 6.92405 11.534 6.82542 11.4953L2.19215 16.1197C1.05416 17.2601 0.415039 18.8054 0.415039 20.4165C0.415039 22.0276 1.05416 23.5729 2.19215 24.7133L6.81528 29.3364C6.9137 29.297 7.0185 29.276 7.12451 29.2743H9.70474C10.7943 29.2711 11.8386 28.838 12.6107 28.0691L18.6316 22.0481C19.7202 20.9608 21.6174 20.9608 22.7048 22.0481L28.7042 28.0463C29.4763 28.8148 30.5207 29.2475 31.6101 29.2502H33.7037C33.8159 29.251 33.9269 29.2734 34.0307 29.3161L38.6348 24.712C39.1992 24.1478 39.6469 23.478 39.9524 22.7407C40.2578 22.0035 40.415 21.2133 40.415 20.4152C40.415 19.6172 40.2578 18.827 39.9524 18.0897C39.6469 17.3525 39.1992 16.6826 38.6348 16.1184" fill="white"/>
</svg>
